<svg width="30" height="30" viewBox="0 0 30 30" fill="none" xmlns="http://www.w3.org/2000/svg">
<path fill-rule="evenodd" clip-rule="evenodd" d="M26.25 22.5H7.515C6.9375 22.515 6.25 22.7437 6.25 23.75C6.25 24.7563 6.9375 24.985 7.515 25H26.25V27.5H7.5C5.9925 27.5 3.75 26.5012 3.75 23.75V6.25C3.75 3.49875 5.9925 2.5 7.5 2.5H23.75C24.413 2.5 25.0489 2.76339 25.5178 3.23223C25.9866 3.70107 26.25 4.33696 26.25 5V22.5ZM19.55 13.2598C19.75 13.1443 19.75 12.8557 19.55 12.7402L12.95 8.92968C12.75 8.81421 12.5 8.95855 12.5 9.18949V16.8105C12.5 17.0415 12.75 17.1858 12.95 17.0703L19.55 13.2598Z" fill="#111111"/>
</svg>
