<svg width="1039" height="750" viewBox="0 0 1039 750" fill="none" xmlns="http://www.w3.org/2000/svg">
<path d="M958.969 206.063C980.658 262.628 951.304 332.787 885.952 400.561C820.63 468.303 719.472 533.513 597.954 580.108C476.436 626.702 357.613 645.842 263.746 639.138C169.835 632.432 101.099 599.883 79.4105 543.319C57.7215 486.754 87.0747 416.594 152.427 348.82C217.749 281.078 318.907 215.868 440.425 169.274C561.943 122.679 680.767 103.54 774.633 110.243C868.544 116.95 937.28 149.498 958.969 206.063Z" stroke="#161A1D"/>
<path d="M990.189 374.691C990.189 435.271 937.663 490.271 852.378 530.155C767.134 570.02 649.334 594.691 519.189 594.691C389.045 594.691 271.245 570.02 186 530.155C100.715 490.271 48.1895 435.271 48.1895 374.691C48.1895 314.11 100.715 259.111 186 219.227C271.245 179.361 389.045 154.691 519.189 154.691C649.334 154.691 767.134 179.361 852.378 219.227C937.663 259.111 990.189 314.11 990.189 374.691Z" stroke="#161A1D"/>
<path d="M968.438 516.17C950.241 573.953 883.619 610.635 790.293 623.059C697.01 635.477 577.24 623.624 453.105 584.531C328.971 545.438 224.022 486.522 154.688 422.892C85.3224 359.232 51.743 290.994 69.9401 233.211C88.1373 175.429 154.759 138.747 248.085 126.322C341.368 113.904 461.138 125.757 585.273 164.85C709.407 203.944 814.356 262.86 883.69 326.49C953.056 390.15 986.635 458.388 968.438 516.17Z" stroke="#161A1D"/>
</svg>
