<svg width="557" height="497" viewBox="0 0 557 497" fill="none" xmlns="http://www.w3.org/2000/svg">
<path d="M484.54 99.4144C504.046 126.435 498.837 167.59 474.33 212.435C449.843 257.245 406.17 305.572 349.102 346.769C292.033 387.966 232.415 414.205 182.175 423.34C131.894 432.482 91.1927 424.47 71.6866 397.45C52.1806 370.429 57.3898 329.275 81.8962 284.429C106.383 239.619 150.056 191.292 207.125 150.095C264.193 108.898 323.811 82.6593 374.051 73.5243C424.332 64.3821 465.034 72.3937 484.54 99.4144Z" stroke="black" stroke-opacity="0.3"/>
<path d="M524.032 182.538C532.658 214.728 513.157 251.342 474.309 284.546C435.491 317.723 377.49 347.365 309.503 365.582C241.517 383.799 176.465 387.128 126.26 377.805C76.0138 368.475 40.8194 346.516 32.1941 314.326C23.5687 282.136 43.0688 245.522 81.9176 212.318C120.735 179.141 178.737 149.499 246.723 131.282C314.709 113.065 379.761 109.736 429.967 119.059C480.212 128.39 515.407 150.348 524.032 182.538Z" stroke="black" stroke-opacity="0.3"/>
<path d="M524.032 314.326C515.407 346.516 480.213 368.474 429.967 377.805C379.761 387.128 314.709 383.799 246.723 365.582C178.737 347.365 120.736 317.723 81.9178 284.546C43.0689 251.342 23.5689 214.728 32.1942 182.538C40.8196 150.348 76.0139 128.39 126.26 119.059C176.466 109.736 241.517 113.065 309.504 131.282C377.49 149.499 435.491 179.141 474.309 212.318C513.158 245.522 532.658 282.136 524.032 314.326Z" stroke="black" stroke-opacity="0.3"/>
</svg>
